<?xml version="1.0" encoding="UTF-8" standalone="no"?>
<svg
   xmlns:dc="http://purl.org/dc/elements/1.1/"
   xmlns:cc="http://creativecommons.org/ns#"
   xmlns:rdf="http://www.w3.org/1999/02/22-rdf-syntax-ns#"
   xmlns:svg="http://www.w3.org/2000/svg"
   xmlns="http://www.w3.org/2000/svg"
   version="1.1"
   viewBox="0 0 250 250"
   height="38mm"
   width="38mm"
   id="MSR-1">
  <metadata
     id="metadata213">
    <rdf:RDF>
      <cc:Work
         rdf:about="">
        <dc:format>image/svg+xml</dc:format>
        <dc:type
           rdf:resource="http://purl.org/dc/dcmitype/StillImage" />
      </cc:Work>
    </rdf:RDF>
  </metadata>
  <defs
     id="defs211" />
  <circle
     stroke-width="2"
     stroke="#e67e22"
     fill="none"
     r="123"
     cy="125"
     cx="125"
     id="Rang0"
     layer="0"
     class="Rang" />
  <g
     style="font-style:normal;font-weight:bold;font-size:18px;font-family:Arial;fill:#e67e22;stroke:none"
     len="164"
     cut="-99"
     rad="121"
     in="1"
     font-weight="bold"
     font-style="normal"
     font-size="18"
     layer="1"
     id="RangText1">
    <g
       id="text5"
       style=""
       transform="rotate(77.8,-83.782246,77.763192)"
       aria-label="R">
      <path
         id="path215"
         style=""
         d="M 1.3183594,0 V -12.884766 H 6.7939453 Q 8.859375,-12.884766 9.7910156,-12.533203 10.731445,-12.19043 11.293945,-11.302734 11.856445,-10.415039 11.856445,-9.2724609 11.856445,-7.8222656 11.003906,-6.8730469 10.151367,-5.9326172 8.4550781,-5.6865234 9.2988281,-5.1943359 9.84375,-4.6054687 10.397461,-4.0166016 11.329102,-2.5136719 L 12.902344,0 H 9.7910156 L 7.9101562,-2.8037109 Q 6.9082031,-4.3066406 6.5390625,-4.6933594 6.1699219,-5.0888672 5.7568359,-5.2294922 5.34375,-5.3789062 4.4472656,-5.3789062 H 3.9199219 V 0 Z M 3.9199219,-7.4355469 H 5.8447266 Q 7.7167969,-7.4355469 8.1826172,-7.59375 8.6484375,-7.7519531 8.9121094,-8.1386719 9.1757813,-8.5253906 9.1757813,-9.1054688 9.1757813,-9.7558594 8.8242188,-10.151367 8.4814453,-10.555664 7.8486328,-10.661133 7.5322266,-10.705078 5.9501953,-10.705078 H 3.9199219 Z" />
    </g>
    <g
       id="text9"
       style=""
       transform="rotate(70.48,-105.30745,88.53925)"
       aria-label="A">
      <path
         id="path218"
         style=""
         d="M 12.928711,0 H 10.098633 L 8.9736328,-2.9267578 H 3.8232422 L 2.7597656,0 H 0 L 5.0185547,-12.884766 H 7.7695312 Z M 8.1386719,-5.0976562 6.3632812,-9.8789063 4.6230469,-5.0976562 Z" />
    </g>
    <g
       id="text13"
       style=""
       transform="rotate(63.41,-129.84896,100.64294)"
       aria-label="Y">
      <path
         id="path221"
         style=""
         d="M 4.6933594,0 V -5.4228516 L -0.02636719,-12.884766 H 3.0234375 L 6.0556641,-7.7871094 9.0263672,-12.884766 H 12.023438 L 7.2861328,-5.4052734 V 0 Z" />
    </g>
    <g
       id="text17"
       style=""
       transform="rotate(56.34,-159.8377,115.42802)"
       aria-label="Y">
      <path
         id="path224"
         style=""
         d="M 4.6933594,0 V -5.4228516 L -0.02636719,-12.884766 H 3.0234375 L 6.0556641,-7.7871094 9.0263672,-12.884766 H 12.023438 L 7.2861328,-5.4052734 V 0 Z" />
    </g>
    <g
       id="text21"
       style=""
       transform="rotate(49.27,-197.64899,134.07881)"
       aria-label="A">
      <path
         id="path227"
         style=""
         d="M 12.928711,0 H 10.098633 L 8.9736328,-2.9267578 H 3.8232422 L 2.7597656,0 H 0 L 5.0185547,-12.884766 H 7.7695312 Z M 8.1386719,-5.0976562 6.3632812,-9.8789063 4.6230469,-5.0976562 Z" />
    </g>
    <g
       id="text25"
       style=""
       transform="rotate(41.95,-248.98244,158.89304)"
       aria-label="N">
      <path
         id="path230"
         style=""
         d="M 1.3359375,0 V -12.884766 H 3.8671875 L 9.140625,-4.2802734 V -12.884766 H 11.557617 V 0 H 8.9472656 L 3.7529297,-8.4023438 V 0 Z" />
    </g>
    <g
       id="text29"
       style=""
       transform="rotate(36.11,-306.362,191.39481)" />
    <g
       id="text33"
       style=""
       transform="rotate(30.52,-376.81834,222.42763)"
       aria-label="S">
      <path
         id="path234"
         style=""
         d="M 0.65039062,-4.1923828 3.1816406,-4.4384766 Q 3.4101563,-3.1640625 4.1044922,-2.5664063 4.8076172,-1.96875 5.9941406,-1.96875 7.2509766,-1.96875 7.8837891,-2.4960938 8.5253906,-3.0322266 8.5253906,-3.7441406 8.5253906,-4.2011719 8.2529297,-4.5175781 7.9892578,-4.8427734 7.3212891,-5.0800781 6.8642578,-5.2382812 5.2382812,-5.6425781 3.1464844,-6.1611328 2.3027344,-6.9169922 1.1162109,-7.9804687 1.1162109,-9.5097656 1.1162109,-10.494141 1.6699219,-11.34668 2.2324219,-12.208008 3.2783203,-12.65625 4.3330078,-13.104492 5.8183594,-13.104492 8.2441406,-13.104492 9.4658203,-12.041016 10.696289,-10.977539 10.757813,-9.2021484 L 8.15625,-9.0878906 Q 7.9892578,-10.081055 7.4355469,-10.511719 6.890625,-10.951172 5.7919922,-10.951172 4.6582031,-10.951172 4.0166016,-10.485352 3.6035156,-10.186523 3.6035156,-9.6855469 3.6035156,-9.2285156 3.9902344,-8.9033203 4.4824219,-8.4902344 6.3808594,-8.0419922 8.2792969,-7.59375 9.1845703,-7.1103516 10.098633,-6.6357422 10.608398,-5.8007812 11.126953,-4.9746094 11.126953,-3.7529297 11.126953,-2.6455078 10.511719,-1.6787109 9.8964844,-0.71191406 8.7714844,-0.23730469 7.6464844,0.22851563 5.9677734,0.22851563 3.5244141,0.22851563 2.2148438,-0.89648438 0.90527344,-2.0302734 0.65039062,-4.1923828 Z" />
    </g>
    <g
       id="text37"
       style=""
       transform="rotate(23.69,-510.16761,289.20835)"
       aria-label="T">
      <path
         id="path237"
         style=""
         d="M 4.2099609,0 V -10.705078 H 0.38671875 V -12.884766 H 10.625977 V -10.705078 H 6.8115234 V 0 Z" />
    </g>
    <g
       id="text41"
       style=""
       transform="rotate(16.62,-760.33101,409.98298)"
       aria-label="U">
      <path
         id="path240"
         style=""
         d="M 1.2919922,-12.884766 H 3.8935547 V -5.90625 Q 3.8935547,-4.2451172 3.9902344,-3.7529297 4.1572266,-2.9619141 4.78125,-2.4785156 5.4140625,-2.0039063 6.5039062,-2.0039063 7.6113281,-2.0039063 8.1738281,-2.4521484 8.7363281,-2.9091797 8.8505859,-3.5683594 8.9648438,-4.2275391 8.9648438,-5.7568359 V -12.884766 H 11.566406 V -6.1171875 Q 11.566406,-3.796875 11.355469,-2.8388672 11.144531,-1.8808594 10.573242,-1.2216797 10.010742,-0.5625 9.0615234,-0.16699219 8.1123047,0.21972656 6.5830078,0.21972656 4.7373047,0.21972656 3.7792969,-0.20214844 2.8300781,-0.6328125 2.2763672,-1.3095703 1.7226562,-1.9951172 1.546875,-2.7421875 1.2919922,-3.8496094 1.2919922,-6.0117187 Z" />
    </g>
    <g
       id="text45"
       style=""
       transform="rotate(9.06,-1457.2127,752.21441)"
       aria-label="D">
      <path
         id="path243"
         style=""
         d="M 1.3007812,-12.884766 H 6.0556641 Q 7.6640625,-12.884766 8.5078125,-12.638672 9.6416016,-12.304688 10.450195,-11.452148 11.258789,-10.599609 11.680664,-9.3603516 12.102539,-8.1298828 12.102539,-6.3193359 12.102539,-4.7285156 11.707031,-3.5771484 11.223633,-2.1708984 10.327148,-1.3007812 9.6503906,-0.64160156 8.4990234,-0.27246094 7.6376953,0 6.1962891,0 H 1.3007812 Z M 3.9023438,-10.705078 V -2.1708984 H 5.8447266 Q 6.9345703,-2.1708984 7.4179687,-2.2939453 8.0507813,-2.4521484 8.4638672,-2.8300781 8.8857422,-3.2080078 9.1494141,-4.0693359 9.4130859,-4.9394531 9.4130859,-6.4335937 9.4130859,-7.9277344 9.1494141,-8.7275391 8.8857422,-9.5273438 8.4111328,-9.9755859 7.9365234,-10.423828 7.2070312,-10.582031 6.6621094,-10.705078 5.0712891,-10.705078 Z" />
    </g>
    <g
       id="text49"
       style=""
       transform="rotate(1.74,-7881.0717,3922.5292)"
       aria-label="Y">
      <path
         id="path246"
         style=""
         d="M 4.6933594,0 V -5.4228516 L -0.02636719,-12.884766 H 3.0234375 L 6.0556641,-7.7871094 9.0263672,-12.884766 H 12.023438 L 7.2861328,-5.4052734 V 0 Z" />
    </g>
    <g
       id="text53"
       style=""
       transform="rotate(-3.86,3646.7774,-1805.8467)" />
    <g
       id="text57"
       style=""
       transform="rotate(-9.7,1487.7545,-693.93259)"
       aria-label="C">
      <path
         id="path250"
         style=""
         d="M 9.5537109,-4.7373047 12.076172,-3.9375 Q 11.496094,-1.828125 10.142578,-0.79980469 8.7978516,0.21972656 6.7236328,0.21972656 4.1572266,0.21972656 2.5048828,-1.5292969 0.85253906,-3.2871094 0.85253906,-6.328125 0.85253906,-9.5449219 2.5136719,-11.320313 4.1748047,-13.104492 6.8818359,-13.104492 9.2460938,-13.104492 10.722656,-11.707031 11.601563,-10.880859 12.041016,-9.3339844 L 9.4658203,-8.71875 Q 9.2373047,-9.7207031 8.5078125,-10.300781 7.7871094,-10.880859 6.75,-10.880859 5.3173828,-10.880859 4.4208984,-9.8525391 3.5332031,-8.8242188 3.5332031,-6.5214844 3.5332031,-4.078125 4.4121094,-3.0410156 5.2910156,-2.0039063 6.6972656,-2.0039063 7.734375,-2.0039063 8.4814453,-2.6630859 9.2285156,-3.3222656 9.5537109,-4.7373047 Z" />
    </g>
    <g
       id="text61"
       style=""
       transform="rotate(-17.02,871.98647,-393.29393)"
       aria-label="E">
      <path
         id="path253"
         style=""
         d="M 1.3095703,0 V -12.884766 H 10.863281 V -10.705078 H 3.9111328 V -7.8486328 H 10.379883 V -5.6777344 H 3.9111328 V -2.1708984 H 11.109375 V 0 Z" />
    </g>
    <g
       id="text65"
       style=""
       transform="rotate(-24.33,625.46276,-270.5182)"
       aria-label="N">
      <path
         id="path256"
         style=""
         d="M 1.3359375,0 V -12.884766 H 3.8671875 L 9.140625,-4.2802734 V -12.884766 H 11.557617 V 0 H 8.9472656 L 3.7529297,-8.4023438 V 0 Z" />
    </g>
    <g
       id="text69"
       style=""
       transform="rotate(-31.4,494.59708,-208.26228)"
       aria-label="T">
      <path
         id="path259"
         style=""
         d="M 4.2099609,0 V -10.705078 H 0.38671875 V -12.884766 H 10.625977 V -10.705078 H 6.8115234 V 0 Z" />
    </g>
    <g
       id="text73"
       style=""
       transform="rotate(-38.23,413.69099,-167.34586)"
       aria-label="E">
      <path
         id="path262"
         style=""
         d="M 1.3095703,0 V -12.884766 H 10.863281 V -10.705078 H 3.9111328 V -7.8486328 H 10.379883 V -5.6777344 H 3.9111328 V -2.1708984 H 11.109375 V 0 Z" />
    </g>
    <g
       id="text77"
       style=""
       transform="rotate(-45.55,353.14053,-136.77582)"
       aria-label="R">
      <path
         id="path265"
         style=""
         d="M 1.3183594,0 V -12.884766 H 6.7939453 Q 8.859375,-12.884766 9.7910156,-12.533203 10.731445,-12.19043 11.293945,-11.302734 11.856445,-10.415039 11.856445,-9.2724609 11.856445,-7.8222656 11.003906,-6.8730469 10.151367,-5.9326172 8.4550781,-5.6865234 9.2988281,-5.1943359 9.84375,-4.6054687 10.397461,-4.0166016 11.329102,-2.5136719 L 12.902344,0 H 9.7910156 L 7.9101562,-2.8037109 Q 6.9082031,-4.3066406 6.5390625,-4.6933594 6.1699219,-5.0888672 5.7568359,-5.2294922 5.34375,-5.3789062 4.4472656,-5.3789062 H 3.9199219 V 0 Z M 3.9199219,-7.4355469 H 5.8447266 Q 7.7167969,-7.4355469 8.1826172,-7.59375 8.6484375,-7.7519531 8.9121094,-8.1386719 9.1757813,-8.5253906 9.1757813,-9.1054688 9.1757813,-9.7558594 8.8242188,-10.151367 8.4814453,-10.555664 7.8486328,-10.661133 7.5322266,-10.705078 5.9501953,-10.705078 H 3.9199219 Z" />
    </g>
    <g
       id="text81"
       style=""
       transform="rotate(-51.39,314.91685,-122.50433)" />
    <g
       id="text85"
       style=""
       transform="rotate(-58.21,283.37188,-100.23774)"
       aria-label="W">
      <path
         id="path269"
         style=""
         d="M 3.1376953,0 0.06152344,-12.884766 H 2.7246094 L 4.6669922,-4.0341797 7.0224609,-12.884766 H 10.116211 L 12.375,-3.8847656 14.352539,-12.884766 H 16.97168 L 13.842773,0 H 11.083008 L 8.5166016,-9.6328125 5.9589844,0 Z" />
    </g>
    <g
       id="text89"
       style=""
       transform="rotate(-64.79,254.04103,-92.262225)"
       aria-label=".">
      <path
         id="path272"
         style=""
         d="M 1.2919922,0 V -2.4697266 H 3.7617188 V 0 Z" />
    </g>
    <g
       id="text93"
       style=""
       transform="rotate(-69.65,238.50455,-81.929948)"
       aria-label="L">
      <path
         id="path275"
         style=""
         d="M 1.3798828,0 V -12.779297 H 3.9814453 V -2.1708984 H 10.450195 V 0 Z" />
    </g>
    <g
       id="text97"
       style=""
       transform="rotate(-74.51,222.49831,-76.264501)"
       aria-label=".">
      <path
         id="path278"
         style=""
         d="M 1.2919922,0 V -2.4697266 H 3.7617188 V 0 Z" />
    </g>
    <g
       id="text101"
       style=""
       transform="rotate(-79.37,210.45865,-68.00078)"
       aria-label="L">
      <path
         id="path281"
         style=""
         d="M 1.3798828,0 V -12.779297 H 3.9814453 V -2.1708984 H 10.450195 V 0 Z" />
    </g>
  </g>
  <circle
     stroke-width="2"
     stroke="#e67e22"
     fill="none"
     r="96"
     cy="125"
     cx="125"
     id="Rang2"
     layer="2"
     class="Rang" />
  <g
     style="font-style:normal;font-weight:bold;font-size:20px;font-family:Arial;fill:#e67e22;stroke:none"
     len="157"
     cut="-78"
     rad="125"
     in="0"
     font-weight="bold"
     font-style="normal"
     font-size="20"
     layer="3"
     id="RangText3">
    <g
       id="text107"
       style=""
       transform="rotate(-76.04,77.123304,37.33031)"
       aria-label="م">
      <path
         id="path284"
         style=""
         d="M 7.2070312,-2.8613281 5.9375,-2.8710938 Q 4.1503906,-2.8710938 2.7734375,-2.5683594 1.3964844,-2.265625 1.3964844,-1.875 1.7773437,-0.703125 2.0703125,0.32226563 2.3730469,1.3476562 2.3730469,2.265625 2.3730469,2.9296875 2.2363281,3.3398438 2.109375,3.75 1.7480469,4.2382812 1.640625,2.9492188 1.2695312,1.5332031 1.1425781,1.0351562 0.63476562,-0.56640625 0.32226563,-1.5527344 0.32226563,-1.875 0.32226563,-2.3339844 0.57617187,-3.0175781 0.78125,-3.5742188 1.0449219,-4.0039062 1.3574219,-4.4921875 2.1289063,-4.7753906 2.9101563,-5.0585937 4.5019531,-5.234375 3.7207031,-6.328125 3.1347656,-6.328125 2.8808594,-6.328125 2.65625,-6.1328125 2.4316406,-5.9375 1.9238281,-5.2734375 L 1.4550781,-5.5078125 Q 1.8847656,-7.0019531 2.5097656,-7.8027344 3.1445313,-8.6132813 3.8964844,-8.6132813 4.5507812,-8.6132813 5.3515625,-7.8613281 6.1523437,-7.109375 7.2070312,-5.5175781 Z" />
    </g>
    <g
       id="text111"
       style=""
       transform="rotate(-70.51,78.058783,28.519228)"
       aria-label=".">
      <path
         id="path287"
         style=""
         d="M 1.4355469,0 V -2.7441406 H 4.1796875 V 0 Z" />
    </g>
    <g
       id="text115"
       style=""
       transform="rotate(-64.98,80.052976,19.649729)"
       aria-label="م">
      <path
         id="path290"
         style=""
         d="M 7.2070312,-2.8613281 5.9375,-2.8710938 Q 4.1503906,-2.8710938 2.7734375,-2.5683594 1.3964844,-2.265625 1.3964844,-1.875 1.7773437,-0.703125 2.0703125,0.32226563 2.3730469,1.3476562 2.3730469,2.265625 2.3730469,2.9296875 2.2363281,3.3398438 2.109375,3.75 1.7480469,4.2382812 1.640625,2.9492188 1.2695312,1.5332031 1.1425781,1.0351562 0.63476562,-0.56640625 0.32226563,-1.5527344 0.32226563,-1.875 0.32226563,-2.3339844 0.57617187,-3.0175781 0.78125,-3.5742188 1.0449219,-4.0039062 1.3574219,-4.4921875 2.1289063,-4.7753906 2.9101563,-5.0585937 4.5019531,-5.234375 3.7207031,-6.328125 3.1347656,-6.328125 2.8808594,-6.328125 2.65625,-6.1328125 2.4316406,-5.9375 1.9238281,-5.2734375 L 1.4550781,-5.5078125 Q 1.8847656,-7.0019531 2.5097656,-7.8027344 3.1445313,-8.6132813 3.8964844,-8.6132813 4.5507812,-8.6132813 5.3515625,-7.8613281 6.1523437,-7.109375 7.2070312,-5.5175781 Z" />
    </g>
    <g
       id="text119"
       style=""
       transform="rotate(-59.45,81.437217,7.9465854)"
       aria-label=".">
      <path
         id="path293"
         style=""
         d="M 1.4355469,0 V -2.7441406 H 4.1796875 V 0 Z" />
    </g>
    <g
       id="text123"
       style=""
       transform="rotate(-54.02,83.881109,-4.2871775)"
       aria-label="ذ">
      <path
         id="path296"
         style=""
         d="M 6.8554687,-2.8613281 H 2.4316406 Q 1.7871094,-2.8613281 1.4453125,-3.1347656 1.0253906,-3.4667969 1.0253906,-4.21875 1.0253906,-4.6484375 1.0644531,-5.1464844 1.1132812,-5.6445312 1.2011719,-6.1523437 L 1.5722656,-6.171875 Q 1.6503906,-5.8300781 1.9140625,-5.6738281 2.1875,-5.5175781 2.5683594,-5.5175781 H 5.9277344 Q 5.703125,-6.953125 5.1464844,-7.8125 4.6875,-8.5253906 3.8671875,-9.0429688 L 4.5703125,-12.089844 Q 5.8398437,-11.142578 6.3671875,-9.6484375 6.8554687,-8.2714844 6.8554687,-5.9960937 Z M 5.1855469,-15.693359 4.0136719,-13.505859 1.7285156,-14.697266 2.9101563,-16.904297 Z" />
    </g>
    <g
       id="text127"
       style=""
       transform="rotate(-48.28,86.543589,-20.766696)" />
    <g
       id="text131"
       style=""
       transform="rotate(-40.87,92.844071,-44.142254)"
       aria-label="ت">
      <path
         id="path300"
         style=""
         d="M 12.988281,-2.8613281 H 4.7949219 Q 4.1992187,-2.8613281 3.8085938,-2.8710938 3.4179688,-2.8808594 3.2226563,-2.9003906 2.8515625,-2.9394531 2.3925781,-3.1054688 1.5820312,-3.3789063 1.0742187,-4.21875 0.55664062,-5.0585937 0.55664062,-6.09375 0.55664062,-6.5039062 0.60546875,-6.9335937 0.6640625,-7.3632812 0.83007813,-7.8515625 1.0253906,-8.4375 1.2890625,-8.8964844 1.5625,-9.3652344 1.8457031,-9.7851563 L 2.3925781,-9.4335938 Q 2.1777344,-9.0429688 2.03125,-8.7207031 1.8945312,-8.3984375 1.8164062,-8.1738281 1.6699219,-7.7148437 1.6699219,-7.2851562 1.6699219,-6.7285156 2.0214844,-6.2792969 2.3925781,-5.8300781 2.9589844,-5.703125 3.3007813,-5.6152344 3.8476563,-5.5664062 4.3945312,-5.5175781 5.0097656,-5.5175781 H 12.070313 Q 11.787109,-6.2890625 11.621094,-6.5722656 11.40625,-6.953125 10.957031,-7.5195312 L 11.835938,-9.7851563 Q 12.568359,-8.7402344 12.792969,-7.8710937 12.988281,-7.0898437 12.988281,-5.625 Z M 9.5410156,-12.128906 8.5253906,-10.234375 7.0800781,-10.957031 6.2597656,-9.375 4.4824219,-10.371094 5.5566406,-12.363281 6.9433594,-11.582031 7.7246094,-13.125 Z" />
    </g>
    <g
       id="text135"
       style=""
       transform="rotate(-34.09,96.244556,-85.337435)"
       aria-label="ا">
      <path
         id="path303"
         style=""
         d="M 3.6132813,-5.703125 Q 3.6132813,-4.8339844 3.4082031,-4.1113281 3.203125,-3.3984375 2.6171875,-2.1875 L 2.03125,-2.421875 Q 2.265625,-3.671875 2.265625,-4.453125 2.265625,-5.0488281 2.1679688,-6.2011719 2.0703125,-7.3535156 1.9238281,-8.4765625 1.7773437,-9.609375 1.4453125,-11.171875 1.328125,-11.71875 1.328125,-11.923828 1.328125,-12.226563 1.6308594,-12.949219 1.9335937,-13.681641 2.4804688,-14.716797 L 3.0664063,-11.259766 Q 3.3886719,-9.2871094 3.515625,-7.8417969 3.6132813,-6.7285156 3.6132813,-5.703125 Z" />
    </g>
    <g
       id="text139"
       style=""
       transform="rotate(-25.95,111.2182,-136.94789)"
       aria-label="س">
      <path
         id="path306"
         style=""
         d="M 17.988281,-2.8710938 Q 16.914062,-2.8710938 16.455078,-2.96875 15.996094,-3.0664063 14.746094,-3.515625 14.179688,-3.1152344 13.730469,-2.9882813 13.291016,-2.8613281 12.402344,-2.8613281 H 10.810547 Q 10.810547,-0.59570312 9.3652344,0.40039063 8.1054688,1.2695312 5.5664062,1.2695312 3.1933594,1.2695312 1.9042969,0.40039063 0.625,-0.45898438 0.625,-2.0507813 0.625,-3.4082031 1.0351562,-4.53125 1.484375,-5.7714844 2.7929688,-7.7539062 L 3.3789063,-7.34375 Q 2.4121094,-5.6933594 2.109375,-4.9511719 1.8164062,-4.2089844 1.8164062,-3.4179688 1.8164062,-2.3925781 2.9101563,-1.7382812 4.0136719,-1.09375 5.8007812,-1.09375 7.5585937,-1.09375 8.7597656,-1.7675781 9.9609375,-2.4414063 9.9609375,-3.4179688 9.9609375,-4.0234375 9.7460938,-4.6191406 9.5410156,-5.2148437 8.8476563,-6.5234375 L 9.7070313,-9.1601563 Q 10.400391,-7.9882812 10.625,-7.2265625 10.820313,-6.5625 10.820313,-5.5175781 H 11.71875 Q 13.193359,-5.5175781 13.769531,-5.859375 14.355469,-6.2109375 14.355469,-7.109375 14.355469,-7.5 14.423828,-7.6757812 14.501953,-7.8613281 14.775391,-8.0566406 L 15.234375,-8.3789063 Q 15.253906,-8.1933594 15.263672,-7.8710937 15.273438,-7.5585937 15.273438,-7.4609375 15.273438,-6.9238281 15.117188,-6.0351562 15.566406,-5.8886719 16.015625,-5.7617187 16.474609,-5.6445312 16.875,-5.5859375 16.875,-5.9375 16.630859,-6.4453125 16.386719,-6.953125 16.386719,-7.109375 16.386719,-7.2265625 16.416016,-7.3339844 16.455078,-7.4414062 16.582031,-7.6171875 L 17.5,-8.9257813 Q 17.763672,-8.3105469 17.871094,-7.8027344 17.988281,-7.3046875 17.988281,-6.5527344 Z" />
    </g>
    <g
       id="text143"
       style=""
       transform="rotate(-17.8,127.51031,-277.19105)"
       aria-label="ا">
      <path
         id="path309"
         style=""
         d="M 3.6132813,-5.703125 Q 3.6132813,-4.8339844 3.4082031,-4.1113281 3.203125,-3.3984375 2.6171875,-2.1875 L 2.03125,-2.421875 Q 2.265625,-3.671875 2.265625,-4.453125 2.265625,-5.0488281 2.1679688,-6.2011719 2.0703125,-7.3535156 1.9238281,-8.4765625 1.7773437,-9.609375 1.4453125,-11.171875 1.328125,-11.71875 1.328125,-11.923828 1.328125,-12.226563 1.6308594,-12.949219 1.9335937,-13.681641 2.4804688,-14.716797 L 3.0664063,-11.259766 Q 3.3886719,-9.2871094 3.515625,-7.8417969 3.6132813,-6.7285156 3.6132813,-5.703125 Z" />
    </g>
    <g
       id="text147"
       style=""
       transform="rotate(-12.21,158.58582,-449.14753)"
       aria-label="ر">
      <path
         id="path312"
         style=""
         d="M 8.6523438,-2.6367188 Q 8.6523438,-2.0410156 7.96875,-1.0546875 7.2851562,-0.078125 6.3671875,0.64453125 5.3515625,1.4453125 4.6289062,1.4453125 3.7695313,1.4453125 2.7832031,0.95703125 1.9238281,0.53710937 0.09765625,-0.72265625 L 0.5078125,-1.328125 Q 1.3867187,-0.7421875 1.9238281,-0.53710937 2.4609375,-0.33203125 3.0859375,-0.33203125 3.7597656,-0.33203125 4.4335937,-0.71289062 5.1074219,-1.09375 6.2695312,-2.1289063 7.890625,-3.5742188 7.890625,-4.3554687 7.890625,-4.7460937 7.578125,-5.3808594 7.2265625,-6.1035156 6.71875,-6.5820312 L 7.265625,-9.21875 Q 7.9296875,-8.5351563 8.2910156,-7.6464844 8.6523438,-6.7578125 8.6523438,-5.625 Z" />
    </g>
    <g
       id="text151"
       style=""
       transform="rotate(-5.93,257.80667,-1058.6284)"
       aria-label="د">
      <path
         id="path315"
         style=""
         d="M 6.8554687,-2.8613281 H 2.4316406 Q 1.7871094,-2.8613281 1.4453125,-3.1347656 1.0253906,-3.4667969 1.0253906,-4.21875 1.0253906,-4.6484375 1.0644531,-5.1464844 1.1132812,-5.6445312 1.2011719,-6.1523437 L 1.5722656,-6.171875 Q 1.6503906,-5.8300781 1.9140625,-5.6738281 2.1875,-5.5175781 2.5683594,-5.5175781 H 5.9277344 Q 5.703125,-6.953125 5.1464844,-7.8125 4.6875,-8.5253906 3.8671875,-9.0429688 L 4.5703125,-12.089844 Q 5.8398437,-11.142578 6.3671875,-9.6484375 6.8554687,-8.2714844 6.8554687,-5.9960937 Z" />
    </g>
    <g
       id="text155"
       style=""
       transform="rotate(0.45,-2493.4504,15455.62)"
       aria-label="ل">
      <path
         id="path318"
         style=""
         d="M 9.0234375,-3.1054688 Q 9.0234375,-1.6015625 7.4609375,-0.43945313 5.8984375,0.72265625 3.8964844,0.72265625 2.2265625,0.72265625 1.2792969,-0.1171875 0.34179688,-0.96679688 0.34179688,-2.4804688 0.34179688,-3.8964844 0.69335937,-4.9511719 1.09375,-6.1425781 2.2558594,-7.8710937 L 2.8613281,-7.4609375 Q 2.0996094,-6.3183594 1.7773437,-5.4785156 1.4550781,-4.6386719 1.4550781,-3.8085938 1.4550781,-2.9199219 2.109375,-2.4316406 2.7734375,-1.953125 3.9746094,-1.953125 5.6933594,-1.953125 6.7675781,-2.6171875 7.8417969,-3.28125 7.8417969,-4.3554687 7.8417969,-4.5410156 7.8417969,-4.6484375 7.8417969,-4.7558594 7.8417969,-4.8144531 7.8417969,-5.1953125 7.7734375,-5.6542969 7.7148437,-6.1132812 7.4511719,-7.5488281 7.03125,-9.8632813 6.6113281,-12.1875 L 6.1230469,-12.539063 Q 6.1230469,-13.496094 7.0214844,-15.46875 L 7.4707031,-15.253906 Q 7.4316406,-15.117188 7.4316406,-14.941406 7.4316406,-14.550781 7.8320312,-14.306641 8.4277344,-13.974609 8.9550781,-13.671875 8.8476563,-12.832031 8.7402344,-12.470703 8.6328125,-12.109375 8.2910156,-11.386719 L 7.9980469,-11.503906 Q 7.9980469,-11.357422 8.2714844,-9.8339844 8.5546875,-8.3203125 8.75,-7.2167969 9.0234375,-5.6347656 9.0234375,-5.2929687 Z" />
    </g>
    <g
       id="text159"
       style=""
       transform="rotate(7.42,-90.192457,1044.0099)"
       aria-label="ل">
      <path
         id="path321"
         style=""
         d="M 9.0234375,-3.1054688 Q 9.0234375,-1.6015625 7.4609375,-0.43945313 5.8984375,0.72265625 3.8964844,0.72265625 2.2265625,0.72265625 1.2792969,-0.1171875 0.34179688,-0.96679688 0.34179688,-2.4804688 0.34179688,-3.8964844 0.69335937,-4.9511719 1.09375,-6.1425781 2.2558594,-7.8710937 L 2.8613281,-7.4609375 Q 2.0996094,-6.3183594 1.7773437,-5.4785156 1.4550781,-4.6386719 1.4550781,-3.8085938 1.4550781,-2.9199219 2.109375,-2.4316406 2.7734375,-1.953125 3.9746094,-1.953125 5.6933594,-1.953125 6.7675781,-2.6171875 7.8417969,-3.28125 7.8417969,-4.3554687 7.8417969,-4.5410156 7.8417969,-4.6484375 7.8417969,-4.7558594 7.8417969,-4.8144531 7.8417969,-5.1953125 7.7734375,-5.6542969 7.7148437,-6.1132812 7.4511719,-7.5488281 7.03125,-9.8632813 6.6113281,-12.1875 L 6.1230469,-12.539063 Q 6.1230469,-13.496094 7.0214844,-15.46875 L 7.4707031,-15.253906 Q 7.4316406,-15.117188 7.4316406,-14.941406 7.4316406,-14.550781 7.8320312,-14.306641 8.4277344,-13.974609 8.9550781,-13.671875 8.8476563,-12.832031 8.7402344,-12.470703 8.6328125,-12.109375 8.2910156,-11.386719 L 7.9980469,-11.503906 Q 7.9980469,-11.357422 8.2714844,-9.8339844 8.5546875,-8.3203125 8.75,-7.2167969 9.0234375,-5.6347656 9.0234375,-5.2929687 Z" />
    </g>
    <g
       id="text163"
       style=""
       transform="rotate(13.75,-19.002532,619.49227)" />
    <g
       id="text167"
       style=""
       transform="rotate(20.57,9.7248684,444.45516)"
       aria-label="ن">
      <path
         id="path325"
         style=""
         d="M 10.820313,-3.3398438 Q 10.820313,-1.9921875 10.556641,-1.171875 10.292969,-0.36132813 9.6875,0.13671875 9.0917969,0.63476562 7.9296875,0.94726563 6.7773437,1.2695312 5.546875,1.2695312 3.1738281,1.2695312 1.8847656,0.40039063 0.60546875,-0.45898438 0.60546875,-2.0507813 0.60546875,-3.4082031 1.015625,-4.53125 1.4648437,-5.7714844 2.7734375,-7.7539062 L 3.359375,-7.34375 Q 2.3925781,-5.6933594 2.0898438,-4.9511719 1.796875,-4.2089844 1.796875,-3.4179688 1.796875,-2.3925781 2.890625,-1.7382812 3.9941406,-1.09375 5.78125,-1.09375 7.5390625,-1.09375 8.7402344,-1.7675781 9.9414063,-2.4414063 9.9414063,-3.4179688 9.9414063,-4.0234375 9.7265625,-4.6191406 9.5214844,-5.2148437 8.828125,-6.5234375 L 9.6875,-9.1601563 Q 10.371094,-7.9199219 10.527344,-7.4511719 10.820313,-6.6015625 10.820313,-5.2929687 Z M 7.6074219,-11.025391 6.4355469,-8.8378906 4.1503906,-10.029297 5.3320312,-12.236328 Z" />
    </g>
    <g
       id="text171"
       style=""
       transform="rotate(26.75,21.485704,373.2974)"
       aria-label="ا">
      <path
         id="path328"
         style=""
         d="M 3.6132813,-5.703125 Q 3.6132813,-4.8339844 3.4082031,-4.1113281 3.203125,-3.3984375 2.6171875,-2.1875 L 2.03125,-2.421875 Q 2.265625,-3.671875 2.265625,-4.453125 2.265625,-5.0488281 2.1679688,-6.2011719 2.0703125,-7.3535156 1.9238281,-8.4765625 1.7773437,-9.609375 1.4453125,-11.171875 1.328125,-11.71875 1.328125,-11.923828 1.328125,-12.226563 1.6308594,-12.949219 1.9335937,-13.681641 2.4804688,-14.716797 L 3.0664063,-11.259766 Q 3.3886719,-9.2871094 3.515625,-7.8417969 3.6132813,-6.7285156 3.6132813,-5.703125 Z" />
    </g>
    <g
       id="text175"
       style=""
       transform="rotate(33.5,32.172118,311.87574)"
       aria-label="ي">
      <path
         id="path331"
         style=""
         d="M 11.494141,-7.6171875 Q 11.494141,-7.0800781 11.386719,-6.7285156 11.279297,-6.3769531 10.927734,-5.8007812 10.664063,-6.4941406 10.478516,-6.6992187 10.302734,-6.9140625 9.9609375,-6.9140625 9.4335938,-6.9140625 8.5058594,-6.3085937 7.5878906,-5.7128906 7.5878906,-5.3027344 7.5878906,-5.0878906 7.9589844,-5 8.2226563,-4.9414062 8.7792969,-4.9414062 8.9257813,-4.9414062 9.0625,-4.9414062 9.2089844,-4.9414062 9.3554688,-4.9511719 10.419922,-4.9511719 10.771484,-4.7363281 11.074219,-4.5507812 11.074219,-4.0136719 11.074219,-2.9589844 10.683594,-1.9921875 10.195313,-0.77148437 9.2675781,-0.25390625 8.1054688,0.40039063 6.8457031,0.80078125 5.5957031,1.2011719 4.5117187,1.2011719 1.4746094,1.2011719 1.4746094,-1.5234375 1.4746094,-2.9003906 1.8164062,-3.8964844 2.1972656,-5.0097656 3.4277344,-6.9140625 L 3.8769531,-6.6210937 Q 3.1542969,-5.4003906 2.7929688,-4.4433594 2.4316406,-3.4960938 2.4316406,-2.7832031 2.4316406,-0.9375 4.5117187,-0.9375 5.2929687,-0.9375 5.9960937,-1.0742187 6.6992187,-1.2207031 7.421875,-1.4746094 7.890625,-1.640625 8.4960938,-1.9042969 9.4628906,-2.3339844 9.5214844,-2.3632813 9.9609375,-2.5976563 9.9609375,-2.7832031 9.9609375,-2.8808594 9.4824219,-2.9003906 9.0136719,-2.9296875 8.8183594,-2.9296875 7.3144531,-2.9296875 6.8066406,-3.359375 6.3964844,-3.7109375 6.3964844,-4.6582031 6.3964844,-5.1074219 6.6796875,-5.7910156 6.9726562,-6.4746094 7.4414062,-7.1484375 8.1542969,-8.1738281 8.8671875,-8.7011719 9.5800781,-9.2285156 10.263672,-9.2285156 10.830078,-9.2285156 11.162109,-8.7890625 11.494141,-8.3496094 11.494141,-7.6171875 Z M 8.90625,2.03125 8.1835938,3.359375 6.6796875,2.5976563 5.9570312,3.8867188 4.453125,3.0859375 5.1953125,1.7382812 6.6601562,2.5 7.3828125,1.25 Z" />
    </g>
    <g
       id="text179"
       style=""
       transform="rotate(41.43,38.10228,274.51144)"
       aria-label="ر">
      <path
         id="path334"
         style=""
         d="M 8.6523438,-2.6367188 Q 8.6523438,-2.0410156 7.96875,-1.0546875 7.2851562,-0.078125 6.3671875,0.64453125 5.3515625,1.4453125 4.6289062,1.4453125 3.7695313,1.4453125 2.7832031,0.95703125 1.9238281,0.53710937 0.09765625,-0.72265625 L 0.5078125,-1.328125 Q 1.3867187,-0.7421875 1.9238281,-0.53710937 2.4609375,-0.33203125 3.0859375,-0.33203125 3.7597656,-0.33203125 4.4335937,-0.71289062 5.1074219,-1.09375 6.2695312,-2.1289063 7.890625,-3.5742188 7.890625,-4.3554687 7.890625,-4.7460937 7.578125,-5.3808594 7.2265625,-6.1035156 6.71875,-6.5820312 L 7.265625,-9.21875 Q 7.9296875,-8.5351563 8.2910156,-7.6464844 8.6523438,-6.7578125 8.6523438,-5.625 Z" />
    </g>
    <g
       id="text183"
       style=""
       transform="rotate(47.66,41.463413,252.69646)" />
    <g
       id="text187"
       style=""
       transform="rotate(53.89,44.906299,233.64487)"
       aria-label="ز">
      <path
         id="path338"
         style=""
         d="M 8.6523438,-2.6367188 Q 8.6523438,-2.0410156 7.96875,-1.0546875 7.2851562,-0.078125 6.3671875,0.64453125 5.3515625,1.4453125 4.6289062,1.4453125 3.7695313,1.4453125 2.7832031,0.95703125 1.9238281,0.53710937 0.09765625,-0.72265625 L 0.5078125,-1.328125 Q 1.3867187,-0.7421875 1.9238281,-0.53710937 2.4609375,-0.33203125 3.0859375,-0.33203125 3.7597656,-0.33203125 4.4335937,-0.71289062 5.1074219,-1.09375 6.2695312,-2.1289063 7.890625,-3.5742188 7.890625,-4.3554687 7.890625,-4.7460937 7.578125,-5.3808594 7.2265625,-6.1035156 6.71875,-6.5820312 L 7.265625,-9.21875 Q 7.9296875,-8.5351563 8.2910156,-7.6464844 8.6523438,-6.7578125 8.6523438,-5.625 Z M 8.1542969,-12.646484 6.9824219,-10.458984 4.6972656,-11.650391 5.8789062,-13.857422 Z" />
    </g>
    <g
       id="text191"
       style=""
       transform="rotate(61.25,48.194155,215.9358)"
       aria-label="ك">
      <path
         id="path341"
         style=""
         d="M 7.4707031,-10.136719 Q 7.4707031,-8.8378906 6.6992187,-8.1054688 5.9375,-7.3828125 4.5605469,-7.3828125 4.1796875,-7.3828125 3.9453125,-7.4023437 3.7207031,-7.421875 3.1933594,-7.5195312 L 3.3105469,-8.1445313 H 3.4863281 Q 4.453125,-8.1445313 5.2636719,-8.4082031 6.0839844,-8.6816406 6.0839844,-9.0429688 6.0839844,-9.1796875 5.9863281,-9.2285156 5.8886719,-9.2871094 5.5957031,-9.3164063 4.6582031,-9.3164063 4.6582031,-10.136719 4.6582031,-10.722656 4.8828125,-11.435547 5.1171875,-12.158203 5.5371094,-12.890625 5.8105469,-13.339844 6.09375,-13.554688 6.3769531,-13.769531 6.9433594,-13.945313 6.9238281,-13.564453 6.9140625,-13.115234 6.9042969,-12.666016 6.9042969,-12.324219 6.3769531,-12.177734 6.0253906,-11.914063 5.7128906,-11.679688 5.7128906,-11.503906 5.7128906,-11.298828 6.3769531,-11.210938 6.9824219,-11.210938 7.2265625,-10.966797 7.4707031,-10.722656 7.4707031,-10.136719 Z M 10.820313,-2.8613281 H 4.2675781 Q 2.1582031,-2.8613281 1.2304687,-3.5839844 0.40039063,-4.2285156 0.40039063,-5.5859375 0.40039063,-6.4941406 0.67382812,-7.3632812 0.95703125,-8.2421875 1.6308594,-9.453125 L 2.2167969,-9.0429688 Q 1.8359375,-8.2910156 1.71875,-7.9199219 1.6113281,-7.5585937 1.6113281,-7.1484375 1.6113281,-6.2109375 2.3046875,-5.859375 2.9980469,-5.5175781 4.9511719,-5.5175781 H 9.6484375 L 8.4667969,-12.148438 7.8417969,-12.558594 Q 7.8417969,-13.134766 8.0175781,-13.720703 8.2421875,-14.462891 8.7792969,-15.488281 L 9.2285156,-15.253906 Q 9.2285156,-15.195313 9.1894531,-14.941406 9.1894531,-14.619141 9.5996094,-14.316406 9.9609375,-14.042969 10.751953,-13.710938 10.664063,-13.085938 10.488281,-12.490234 10.322266,-11.894531 10.107422,-11.425781 L 9.7558594,-11.5625 10.820313,-5.5175781 Z" />
    </g>
    <g
       id="text195"
       style=""
       transform="rotate(68.61,49.9422,203.39219)"
       aria-label="ر">
      <path
         id="path344"
         style=""
         d="M 8.6523438,-2.6367188 Q 8.6523438,-2.0410156 7.96875,-1.0546875 7.2851562,-0.078125 6.3671875,0.64453125 5.3515625,1.4453125 4.6289062,1.4453125 3.7695313,1.4453125 2.7832031,0.95703125 1.9238281,0.53710937 0.09765625,-0.72265625 L 0.5078125,-1.328125 Q 1.3867187,-0.7421875 1.9238281,-0.53710937 2.4609375,-0.33203125 3.0859375,-0.33203125 3.7597656,-0.33203125 4.4335937,-0.71289062 5.1074219,-1.09375 6.2695312,-2.1289063 7.890625,-3.5742188 7.890625,-4.3554687 7.890625,-4.7460937 7.578125,-5.3808594 7.2265625,-6.1035156 6.71875,-6.5820312 L 7.265625,-9.21875 Q 7.9296875,-8.5351563 8.2910156,-7.6464844 8.6523438,-6.7578125 8.6523438,-5.625 Z" />
    </g>
    <g
       id="text199"
       style=""
       transform="rotate(74.99,51.22575,194.08308)"
       aria-label="م">
      <path
         id="path347"
         style=""
         d="M 7.2070312,-2.8613281 5.9375,-2.8710938 Q 4.1503906,-2.8710938 2.7734375,-2.5683594 1.3964844,-2.265625 1.3964844,-1.875 1.7773437,-0.703125 2.0703125,0.32226563 2.3730469,1.3476562 2.3730469,2.265625 2.3730469,2.9296875 2.2363281,3.3398438 2.109375,3.75 1.7480469,4.2382812 1.640625,2.9492188 1.2695312,1.5332031 1.1425781,1.0351562 0.63476562,-0.56640625 0.32226563,-1.5527344 0.32226563,-1.875 0.32226563,-2.3339844 0.57617187,-3.0175781 0.78125,-3.5742188 1.0449219,-4.0039062 1.3574219,-4.4921875 2.1289063,-4.7753906 2.9101563,-5.0585937 4.5019531,-5.234375 3.7207031,-6.328125 3.1347656,-6.328125 2.8808594,-6.328125 2.65625,-6.1328125 2.4316406,-5.9375 1.9238281,-5.2734375 L 1.4550781,-5.5078125 Q 1.8847656,-7.0019531 2.5097656,-7.8027344 3.1445313,-8.6132813 3.8964844,-8.6132813 4.5507812,-8.6132813 5.3515625,-7.8613281 6.1523437,-7.109375 7.2070312,-5.5175781 Z" />
    </g>
  </g>
  <g
     id="Text4"
     style="font-style:normal;font-weight:bold;font-size:18px;font-family:Arial;fill:#e67e22;stroke:none"
     aria-label="CR : 137428-1">
    <path
       id="path350"
       style="text-anchor:middle"
       d="M 75.473633,115.6627 77.996094,116.4625 Q 77.416016,118.57188 76.0625,119.6002 74.717773,120.61973 72.643555,120.61973 70.077148,120.61973 68.424805,118.8707 66.772461,117.11289 66.772461,114.07188 66.772461,110.85508 68.433594,109.07969 70.094727,107.29551 72.801758,107.29551 75.166016,107.29551 76.642578,108.69297 77.521484,109.51914 77.960937,111.06602 L 75.385742,111.68125 Q 75.157227,110.6793 74.427734,110.09922 73.707031,109.51914 72.669922,109.51914 71.237305,109.51914 70.34082,110.54746 69.453125,111.57578 69.453125,113.87852 69.453125,116.32188 70.332031,117.35898 71.210937,118.39609 72.617187,118.39609 73.654297,118.39609 74.401367,117.73691 75.148437,117.07773 75.473633,115.6627 Z" />
    <path
       id="path352"
       style="text-anchor:middle"
       d="M 80.246094,120.4 V 107.51523 H 85.72168 Q 87.787109,107.51523 88.71875,107.8668 89.65918,108.20957 90.22168,109.09727 90.78418,109.98496 90.78418,111.12754 90.78418,112.57773 89.931641,113.52695 89.079102,114.46738 87.382812,114.71348 88.226562,115.20566 88.771484,115.79453 89.325195,116.3834 90.256836,117.88633 L 91.830078,120.4 H 88.71875 L 86.837891,117.59629 Q 85.835937,116.09336 85.466797,115.70664 85.097656,115.31113 84.68457,115.17051 84.271484,115.02109 83.375,115.02109 H 82.847656 V 120.4 Z M 82.847656,112.96445 H 84.772461 Q 86.644531,112.96445 87.110352,112.80625 87.576172,112.64805 87.839844,112.26133 88.103516,111.87461 88.103516,111.29453 88.103516,110.64414 87.751953,110.24863 87.40918,109.84434 86.776367,109.73887 86.459961,109.69492 84.87793,109.69492 H 82.847656 Z" />
    <path
       id="path354"
       style="text-anchor:middle"
       d="M 98.694336,113.53574 V 111.06602 H 101.16406 V 113.53574 Z M 98.694336,120.4 V 117.93027 H 101.16406 V 120.4 Z" />
    <path
       id="path356"
       style="text-anchor:middle"
       d="M 115.01563,120.4 H 112.5459 V 111.09238 Q 111.19238,112.35801 109.35547,112.96445 V 110.72324 Q 110.32227,110.40684 111.45605,109.52793 112.58984,108.64023 113.01172,107.4625 H 115.01563 Z" />
    <path
       id="path358"
       style="text-anchor:middle"
       d="M 118.62793,116.98105 121.01855,116.69102 Q 121.13281,117.60508 121.63379,118.08848 122.13477,118.57188 122.84668,118.57188 123.61133,118.57188 124.12988,117.9918 124.65723,117.41172 124.65723,116.42734 124.65723,115.4957 124.15625,114.95078 123.65527,114.40586 122.93457,114.40586 122.45996,114.40586 121.80078,114.59043 L 122.07324,112.57773 Q 123.0752,112.6041 123.60254,112.14707 124.12988,111.68125 124.12988,110.9166 124.12988,110.26621 123.74316,109.87949 123.35645,109.49277 122.71484,109.49277 122.08203,109.49277 121.63379,109.93223 121.18555,110.37168 121.08887,111.21543 L 118.8125,110.82871 Q 119.0498,109.65977 119.52441,108.96543 120.00781,108.2623 120.86035,107.8668 121.72168,107.4625 122.78516,107.4625 124.60449,107.4625 125.70313,108.62266 126.6084,109.57188 126.6084,110.76719 126.6084,112.46348 124.75391,113.47422 125.86133,113.71152 126.52051,114.5377 127.18848,115.36387 127.18848,116.53281 127.18848,118.2291 125.94922,119.42441 124.70996,120.61973 122.86426,120.61973 121.11523,120.61973 119.96387,119.61777 118.8125,118.60703 118.62793,116.98105 Z" />
    <path
       id="path360"
       style="text-anchor:middle"
       d="M 128.73535,109.98496 V 107.69102 H 137.18164 V 109.48398 Q 136.13574,110.5123 135.05469,112.43711 133.97363,114.36191 133.40234,116.53281 132.83984,118.69492 132.84863,120.4 H 130.4668 Q 130.52832,117.72813 131.56543,114.95078 132.61133,112.17344 134.35156,109.98496 Z" />
    <path
       id="path362"
       style="text-anchor:middle"
       d="M 143.59766,120.4 V 117.80723 H 138.32422 V 115.64512 L 143.91406,107.4625 H 145.98828 V 115.63633 H 147.58789 V 117.80723 H 145.98828 V 120.4 Z M 143.59766,115.63633 V 111.23301 L 140.63574,115.63633 Z" />
    <path
       id="path364"
       style="text-anchor:middle"
       d="M 157.11523,118.10605 V 120.4 H 148.45801 Q 148.59863,119.09922 149.30176,117.93906 150.00488,116.77012 152.0791,114.84531 153.74902,113.28965 154.12695,112.73594 154.63672,111.97129 154.63672,111.22422 154.63672,110.39805 154.18848,109.95859 153.74902,109.51035 152.9668,109.51035 152.19336,109.51035 151.73633,109.97617 151.2793,110.44199 151.20898,111.52305 L 148.74805,111.27695 Q 148.96777,109.23789 150.12793,108.3502 151.28809,107.4625 153.02832,107.4625 154.93555,107.4625 156.02539,108.49082 157.11523,109.51914 157.11523,111.04844 157.11523,111.91855 156.79883,112.70957 156.49121,113.4918 155.81445,114.35313 155.36621,114.92441 154.19727,115.99668 153.02832,117.06895 152.71191,117.42051 152.4043,117.77207 152.21094,118.10605 Z" />
    <path
       id="path366"
       style="text-anchor:middle"
       d="M 160.91211,113.44785 Q 159.9541,113.04355 159.51465,112.34043 159.08398,111.62852 159.08398,110.78477 159.08398,109.34336 160.08594,108.40293 161.09668,107.4625 162.95117,107.4625 164.78809,107.4625 165.79883,108.40293 166.81836,109.34336 166.81836,110.78477 166.81836,111.68125 166.35254,112.38438 165.88672,113.07871 165.04297,113.44785 166.11523,113.87852 166.66895,114.70469 167.23145,115.53086 167.23145,116.61191 167.23145,118.39609 166.08887,119.5123 164.95508,120.62852 163.06543,120.62852 161.30762,120.62852 160.13867,119.70566 158.75879,118.61582 158.75879,116.71738 158.75879,115.67148 159.27734,114.80137 159.7959,113.92246 160.91211,113.44785 Z M 161.42187,110.96055 Q 161.42187,111.69883 161.83496,112.11191 162.25684,112.525 162.95117,112.525 163.6543,112.525 164.07617,112.11191 164.49805,111.69004 164.49805,110.95176 164.49805,110.25742 164.07617,109.84434 163.66309,109.42246 162.97754,109.42246 162.26562,109.42246 161.84375,109.84434 161.42187,110.26621 161.42187,110.96055 Z M 161.19336,116.48008 Q 161.19336,117.49961 161.71191,118.0709 162.23926,118.64219 163.02148,118.64219 163.78613,118.64219 164.28711,118.09727 164.78809,117.54355 164.78809,116.50645 164.78809,115.60117 164.27832,115.05625 163.76855,114.50254 162.98633,114.50254 162.08105,114.50254 161.63281,115.12656 161.19336,115.75059 161.19336,116.48008 Z" />
    <path
       id="path368"
       style="text-anchor:middle"
       d="M 169.05957,116.96348 V 114.49375 H 173.91113 V 116.96348 Z" />
    <path
       id="path370"
       style="text-anchor:middle"
       d="M 181.14453,120.4 H 178.6748 V 111.09238 Q 177.32129,112.35801 175.48437,112.96445 V 110.72324 Q 176.45117,110.40684 177.58496,109.52793 178.71875,108.64023 179.14062,107.4625 H 181.14453 Z" />
  </g>
  <g
     id="Text6"
     style="font-style:normal;font-weight:bold;font-size:16px;font-family:Arial;fill:#e67e22;stroke:none"
     aria-label="KINGDOM OF BAHRAIN">
    <path
       id="path373"
       style="text-anchor:middle"
       d="M 35.070312,139.59 V 128.13688 H 37.382812 V 133.22281 L 42.054687,128.13688 H 45.164062 L 40.851562,132.59781 45.398437,139.59 H 42.40625 L 39.257812,134.215 37.382812,136.12906 V 139.59 Z" />
    <path
       id="path375"
       style="text-anchor:middle"
       d="M 46.53125,139.59 V 128.13688 H 48.84375 V 139.59 Z" />
    <path
       id="path377"
       style="text-anchor:middle"
       d="M 51.0625,139.59 V 128.13688 H 53.3125 L 58,135.78531 V 128.13688 H 60.148437 V 139.59 H 57.828125 L 53.210937,132.12125 V 139.59 Z" />
    <path
       id="path379"
       style="text-anchor:middle"
       d="M 67.929687,135.37906 V 133.44938 H 72.914062 V 138.01188 Q 72.1875,138.715 70.804687,139.25406 69.429687,139.78531 68.015625,139.78531 66.21875,139.78531 64.882812,139.03531 63.546875,138.2775 62.875,136.87906 62.203125,135.47281 62.203125,133.82438 62.203125,132.03531 62.953125,130.64469 63.703125,129.25406 65.148437,128.51188 66.25,127.94156 67.890625,127.94156 70.023437,127.94156 71.21875,128.84 72.421875,129.73063 72.765625,131.30875 L 70.46875,131.73844 Q 70.226562,130.89469 69.554687,130.41031 68.890625,129.91813 67.890625,129.91813 66.375,129.91813 65.476562,130.87906 64.585937,131.84 64.585937,133.73063 64.585937,135.76969 65.492187,136.79313 66.398437,137.80875 67.867187,137.80875 68.59375,137.80875 69.320312,137.5275 70.054687,137.23844 70.578125,136.83219 V 135.37906 Z" />
    <path
       id="path381"
       style="text-anchor:middle"
       d="M 75.03125,128.13688 H 79.257812 Q 80.6875,128.13688 81.4375,128.35563 82.445312,128.6525 83.164062,129.41031 83.882812,130.16813 84.257812,131.26969 84.632812,132.36344 84.632812,133.97281 84.632812,135.38688 84.28125,136.41031 83.851562,137.66031 83.054687,138.43375 82.453125,139.01969 81.429687,139.34781 80.664062,139.59 79.382812,139.59 H 75.03125 Z M 77.34375,130.07438 V 137.66031 H 79.070312 Q 80.039062,137.66031 80.46875,137.55094 81.03125,137.41031 81.398437,137.07438 81.773437,136.73844 82.007812,135.97281 82.242187,135.19938 82.242187,133.87125 82.242187,132.54313 82.007812,131.83219 81.773437,131.12125 81.351562,130.72281 80.929687,130.32438 80.28125,130.18375 79.796875,130.07438 78.382812,130.07438 Z" />
    <path
       id="path383"
       style="text-anchor:middle"
       d="M 86.132812,133.93375 Q 86.132812,132.18375 86.65625,130.99625 87.046875,130.12125 87.71875,129.42594 88.398437,128.73063 89.203125,128.39469 90.273437,127.94156 91.671875,127.94156 94.203125,127.94156 95.71875,129.51188 97.242187,131.08219 97.242187,133.87906 97.242187,136.6525 95.734375,138.22281 94.226562,139.78531 91.703125,139.78531 89.148437,139.78531 87.640625,138.23063 86.132812,136.66813 86.132812,133.93375 Z M 88.515625,133.85563 Q 88.515625,135.80094 89.414062,136.80875 90.3125,137.80875 91.695312,137.80875 93.078125,137.80875 93.960937,136.81656 94.851562,135.81656 94.851562,133.82438 94.851562,131.85563 93.984375,130.88688 93.125,129.91813 91.695312,129.91813 90.265625,129.91813 89.390625,130.9025 88.515625,131.87906 88.515625,133.85563 Z" />
    <path
       id="path385"
       style="text-anchor:middle"
       d="M 99.007812,139.59 V 128.13688 H 102.46875 L 104.54688,135.94938 106.60156,128.13688 H 110.07031 V 139.59 H 107.92188 V 130.57438 L 105.64844,139.59 H 103.42188 L 101.15625,130.57438 V 139.59 Z" />
    <path
       id="path387"
       style="text-anchor:middle"
       d="M 116.35156,133.93375 Q 116.35156,132.18375 116.875,130.99625 117.26563,130.12125 117.9375,129.42594 118.61719,128.73063 119.42188,128.39469 120.49219,127.94156 121.89063,127.94156 124.42188,127.94156 125.9375,129.51188 127.46094,131.08219 127.46094,133.87906 127.46094,136.6525 125.95313,138.22281 124.44531,139.78531 121.92188,139.78531 119.36719,139.78531 117.85938,138.23063 116.35156,136.66813 116.35156,133.93375 Z M 118.73438,133.85563 Q 118.73438,135.80094 119.63281,136.80875 120.53125,137.80875 121.91406,137.80875 123.29688,137.80875 124.17969,136.81656 125.07031,135.81656 125.07031,133.82438 125.07031,131.85563 124.20313,130.88688 123.34375,129.91813 121.91406,129.91813 120.48438,129.91813 119.60938,130.9025 118.73438,131.87906 118.73438,133.85563 Z" />
    <path
       id="path389"
       style="text-anchor:middle"
       d="M 129.27344,139.59 V 128.13688 H 137.125 V 130.07438 H 131.58594 V 132.78531 H 136.36719 V 134.72281 H 131.58594 V 139.59 Z" />
    <path
       id="path391"
       style="text-anchor:middle"
       d="M 143.48437,128.13688 H 148.0625 Q 149.42187,128.13688 150.08594,128.25406 150.75781,128.36344 151.28125,128.72281 151.8125,129.08219 152.16406,129.68375 152.51562,130.2775 152.51562,131.01969 152.51562,131.82438 152.07812,132.49625 151.64844,133.16813 150.90625,133.50406 151.95312,133.80875 152.51562,134.54313 153.07812,135.2775 153.07812,136.26969 153.07812,137.05094 152.71094,137.79313 152.35156,138.5275 151.71875,138.97281 151.09375,139.41031 150.17187,139.51188 149.59375,139.57438 147.38281,139.59 H 143.48437 Z M 145.79687,130.04313 V 132.69156 H 147.3125 Q 148.66406,132.69156 148.99219,132.6525 149.58594,132.58219 149.92187,132.24625 150.26562,131.9025 150.26562,131.34781 150.26562,130.81656 149.96875,130.48844 149.67969,130.1525 149.10156,130.08219 148.75781,130.04313 147.125,130.04313 Z M 145.79687,134.59781 V 137.66031 H 147.9375 Q 149.1875,137.66031 149.52344,137.59 150.03906,137.49625 150.35937,137.13688 150.6875,136.76969 150.6875,136.16031 150.6875,135.64469 150.4375,135.28531 150.1875,134.92594 149.71094,134.76188 149.24219,134.59781 147.66406,134.59781 Z" />
    <path
       id="path393"
       style="text-anchor:middle"
       d="M 165.36719,139.59 H 162.85156 L 161.85156,136.98844 H 157.27344 L 156.32812,139.59 H 153.875 L 158.33594,128.13688 H 160.78125 Z M 161.10937,135.05875 159.53125,130.80875 157.98437,135.05875 Z" />
    <path
       id="path395"
       style="text-anchor:middle"
       d="M 166.60937,139.59 V 128.13688 H 168.92187 V 132.64469 H 173.45312 V 128.13688 H 175.76562 V 139.59 H 173.45312 V 134.58219 H 168.92187 V 139.59 Z" />
    <path
       id="path397"
       style="text-anchor:middle"
       d="M 178.17187,139.59 V 128.13688 H 183.03906 Q 184.875,128.13688 185.70312,128.44938 186.53906,128.75406 187.03906,129.54313 187.53906,130.33219 187.53906,131.34781 187.53906,132.63688 186.78125,133.48063 186.02344,134.31656 184.51562,134.53531 185.26562,134.97281 185.75,135.49625 186.24219,136.01969 187.07031,137.35563 L 188.46875,139.59 H 185.70312 L 184.03125,137.09781 Q 183.14062,135.76188 182.8125,135.41813 182.48437,135.06656 182.11719,134.94156 181.75,134.80875 180.95312,134.80875 H 180.48437 V 139.59 Z M 180.48437,132.98063 H 182.19531 Q 183.85937,132.98063 184.27344,132.84 184.6875,132.69938 184.92187,132.35563 185.15625,132.01188 185.15625,131.49625 185.15625,130.91813 184.84375,130.56656 184.53906,130.20719 183.97656,130.11344 183.69531,130.07438 182.28906,130.07438 H 180.48437 Z" />
    <path
       id="path399"
       style="text-anchor:middle"
       d="M 200.05469,139.59 H 197.53906 L 196.53906,136.98844 H 191.96094 L 191.01562,139.59 H 188.5625 L 193.02344,128.13688 H 195.46875 Z M 195.79687,135.05875 194.21875,130.80875 192.67187,135.05875 Z" />
    <path
       id="path401"
       style="text-anchor:middle"
       d="M 201.21875,139.59 V 128.13688 H 203.53125 V 139.59 Z" />
    <path
       id="path403"
       style="text-anchor:middle"
       d="M 205.75,139.59 V 128.13688 H 208 L 212.6875,135.78531 V 128.13688 H 214.83594 V 139.59 H 212.51562 L 207.89844,132.12125 V 139.59 Z" />
  </g>
</svg>
